<svg id="Layer_2" data-name="Layer 2" xmlns="http://www.w3.org/2000/svg" viewBox="0 0 252.5 87.5"><defs><style>.cls-1{fill-rule:evenodd}</style></defs><path class="cls-1" d="M0 0h252.5v87.5H0V0z"/><path d="M512.9 317l6.45 2a14.56 14.56 0 01-4.93 8 15.53 15.53 0 01-19.53-1.87q-4.23-4.49-4.23-12.25 0-8.22 4.25-12.77a14.56 14.56 0 0111.16-4.55 13.71 13.71 0 019.82 3.57 13.07 13.07 0 013.37 6.07l-6.59 1.57a6.91 6.91 0 00-2.43-4 7 7 0 00-4.51-1.49 7.5 7.5 0 00-5.94 2.63q-2.28 2.63-2.28 8.51c0 4.17.75 7.13 2.25 8.9a7.28 7.28 0 005.84 2.68 6.62 6.62 0 004.56-1.69 9.77 9.77 0 002.74-5.31zm16.82-4.5l-5.72-1a8.93 8.93 0 013.32-5.12q2.35-1.67 7-1.66a15.07 15.07 0 016.29 1 6.34 6.34 0 012.91 2.53q.84 1.54.84 5.65l-.07 7.37a25.87 25.87 0 00.3 4.64 13.62 13.62 0 001.14 3.2h-6.25q-.24-.63-.6-1.86c-.11-.38-.18-.63-.23-.75a11.28 11.28 0 01-3.46 2.36 9.75 9.75 0 01-3.93.79 8.13 8.13 0 01-5.8-2 6.63 6.63 0 01-2.13-5.05 6.84 6.84 0 011-3.61 6.31 6.31 0 012.71-2.42 20.68 20.68 0 015-1.48 34 34 0 006.13-1.55v-.62a3.27 3.27 0 00-.9-2.6 5.43 5.43 0 00-3.39-.77 4.55 4.55 0 00-2.63.66 4.62 4.62 0 00-1.53 2.29zm8.45 5.13c-.81.26-2.09.59-3.84 1a11.79 11.79 0 00-3.44 1.1 2.65 2.65 0 00-1.23 2.23 3.1 3.1 0 001 2.29 3.47 3.47 0 002.52 1 5.47 5.47 0 003.26-1.12 4 4 0 001.5-2.09 12.15 12.15 0 00.25-3.08zm18.46 11.45h-6.31v-23.85h5.86v3.39a10.22 10.22 0 012.71-3.17 5 5 0 012.73-.76 8 8 0 014.15 1.19l-1.95 5.5a5.51 5.51 0 00-3-1 3.47 3.47 0 00-2.24.73 4.89 4.89 0 00-1.45 2.64 37.54 37.54 0 00-.53 8zm11.28 1.57l7.21.88a2.45 2.45 0 00.83 1.73 4.74 4.74 0 002.83.67 7.38 7.38 0 003.7-.74 3 3 0 001.26-1.59 9.46 9.46 0 00.29-2.9v-3.48a8.53 8.53 0 01-7.14 3.86 8.79 8.79 0 01-7.61-4.07 13.78 13.78 0 01-2.2-8q0-6 2.88-9.17a9.33 9.33 0 017.18-3.16 8.74 8.74 0 017.3 3.88v-3.34h5.9v21.4a21.47 21.47 0 01-.69 6.31 7.8 7.8 0 01-2 3.28 8.49 8.49 0 01-3.35 1.87 17.68 17.68 0 01-5.32.67q-6.06 0-8.6-2.08a6.51 6.51 0 01-2.54-5.26c.04-.2.05-.41.07-.76zm5.63-14q0 3.79 1.47 5.56a4.59 4.59 0 003.63 1.76 5 5 0 003.91-1.81 7.88 7.88 0 001.6-5.35q0-3.7-1.53-5.51a4.88 4.88 0 00-3.86-1.79 4.66 4.66 0 00-3.75 1.76 8.29 8.29 0 00-1.47 5.39zm21.59.17a12.94 12.94 0 011.55-6.09 10.63 10.63 0 014.39-4.49 13 13 0 016.35-1.55 11.93 11.93 0 018.87 3.51 13.2 13.2 0 010 17.86 11.82 11.82 0 01-8.79 3.56 13.78 13.78 0 01-6.25-1.48 10.15 10.15 0 01-4.53-4.35 14.5 14.5 0 01-1.59-6.97zm6.47.33a7.93 7.93 0 001.68 5.44 5.36 5.36 0 004.16 1.89 5.29 5.29 0 004.14-1.89 8 8 0 001.68-5.48 7.84 7.84 0 00-1.68-5.39 5.29 5.29 0 00-4.14-1.89 5.36 5.36 0 00-4.16 1.89 7.92 7.92 0 00-1.68 5.43z" transform="translate(-473.75 -271.25)" fill="#fff"/><path d="M632.5 289.78h73a3.83 3.83 0 013.82 3.82v42.8a3.83 3.83 0 01-3.82 3.82h-73a3.83 3.83 0 01-3.82-3.82v-42.8a3.83 3.83 0 013.82-3.82z" transform="translate(-473.75 -271.25)" fill="#f8981e" fill-rule="evenodd"/><path class="cls-1" d="M682.64 329.09v-30.57h5.91l-.32 9.76a11 11 0 016.43-1.91 10.14 10.14 0 016.64 2.65c2 2 3 5 3 8.72a15.15 15.15 0 01-1.38 6.8 9.14 9.14 0 01-8 5.11 10.43 10.43 0 01-6.81-2.27v1.71zm5.85-11.45c0 4.52 1.87 7.2 5.07 7.2 3.48 0 4.69-3.33 4.69-6.71s-.91-7.15-4.92-7.15c-3.5 0-4.84 3.15-4.84 6.66zm-32.87 11.44h-5.87v-11.43a18.06 18.06 0 00-.38-4.71 3.12 3.12 0 00-3.24-2 4.28 4.28 0 00-4.35 3.09 19.67 19.67 0 00-.45 5.16v9.88h-5.87v-30.58h5.91v9.88a10.47 10.47 0 016.55-2c3.51 0 6.58 1.65 7.38 5.11a19.71 19.71 0 01.32 4v13.56zm3.38-22.17h5.89v11.4a18.06 18.06 0 00.38 4.71 3.19 3.19 0 003.23 2 4.39 4.39 0 004.37-3.08 21.59 21.59 0 00.36-5.23v-9.82h5.93v22.17h-5.51v-2.37a9.25 9.25 0 01-7 2.9c-3.58 0-6.54-1.6-7.34-5.06a19.2 19.2 0 01-.35-4v-13.62z" transform="translate(-473.75 -271.25)"/></svg>