<svg width="16" height="16" fill="none" xmlns="http://www.w3.org/2000/svg"><path d="M14.667 8A6.667 6.667 0 111.333 8a6.667 6.667 0 0113.334 0zm-1.334 0A5.333 5.333 0 102.667 8a5.333 5.333 0 0010.666 0zm-5.692 3.67c-.683 0-.908-.42-.908-.807 0-.163.051-.408.092-.55l.714-3.075h-.836a.167.167 0 01-.162-.205l.05-.216a.233.233 0 01.187-.177l1.892-.334a.333.333 0 01.382.406L8.094 10.7a.126.126 0 00.22.11l.777-.95a.215.215 0 01.342.257l-.466.675c-.49.714-.938.877-1.326.877zm.226-6.576c0 .337.265.623.734.623.46 0 .796-.255.898-.663.02-.082.03-.174.03-.245 0-.337-.265-.622-.734-.622-.449 0-.796.255-.898.663-.02.081-.03.173-.03.244z" fill="#000" fill-opacity=".25"/></svg>