<svg class="SocialItem__icon SocialItem__icon_theme_white" width="40" height="40" viewBox="0 0 38 38" xmlns="http://www.w3.org/2000/svg"><path fill="#AAA" d="M29.688 13.657a8.261 8.261 0 01-2.171.558c.78-.437 1.377-1.124 1.657-1.952a7.838 7.838 0 01-2.389.855A3.896 3.896 0 0024.034 12c-2.086 0-3.765 1.587-3.765 3.533 0 .28.025.55.087.806-3.131-.143-5.903-1.55-7.764-3.695a3.39 3.39 0 00-.516 1.786c0 1.223.672 2.307 1.673 2.935a3.911 3.911 0 01-1.702-.435v.039c0 1.716 1.306 3.142 3.019 3.47-.307.08-.641.117-.988.117a3.57 3.57 0 01-.713-.06c.488 1.399 1.873 2.427 3.52 2.46a7.894 7.894 0 01-4.671 1.507c-.309 0-.605-.013-.902-.048C12.982 25.424 14.96 26 17.093 26c6.931 0 10.721-5.385 10.721-10.052 0-.156-.005-.307-.014-.457a7.276 7.276 0 001.889-1.834z"/></svg>