<svg viewBox="0 0 36 36" fill="none" xmlns="http://www.w3.org/2000/svg"><path d="M31.035 16.215a3.81 3.81 0 00-5.265.615l-.495.615V8.25a3.525 3.525 0 00-3.525-3.525 3.48 3.48 0 00-.975.135 3.525 3.525 0 00-6.75-1.395 3.525 3.525 0 00-4.8 3.285v.24a3.525 3.525 0 00-4.5 3.39v11.565c0 5.925 4.71 10.305 4.92 10.5l.36.33H24l9.15-15-2.115-1.56zm-8.415 14.01H11.025a13.11 13.11 0 01-3.75-8.28V10.38a.975.975 0 111.95 0V18h2.55V6.75a.975.975 0 111.95 0V18h2.55V4.905a.975.975 0 111.95 0V18h2.55V8.25a.975.975 0 111.95 0V22.5h1.695l3.315-4.05a1.29 1.29 0 011.77-.195l.3.225-7.185 11.745z" fill="#222"/></svg>