<svg width="40" height="40" fill="none" xmlns="http://www.w3.org/2000/svg"><path d="M20 0A20.15 20.15 0 008.889 3.335a19.837 19.837 0 00-7.367 8.882A19.599 19.599 0 00.384 23.652a19.728 19.728 0 005.474 10.133 20.066 20.066 0 0010.24 5.416c3.88.764 7.901.372 11.556-1.126a19.956 19.956 0 008.975-7.289 19.61 19.61 0 001.848-18.569 19.778 19.778 0 00-4.335-6.42 20.015 20.015 0 00-6.488-4.29A20.184 20.184 0 0020 0zm0 37.405c-3.52 0-6.962-1.033-9.89-2.969a17.655 17.655 0 01-6.555-7.905 17.443 17.443 0 01-1.013-10.176 17.558 17.558 0 014.872-9.02 17.859 17.859 0 019.113-4.82c3.453-.68 7.032-.33 10.285 1.003a17.761 17.761 0 017.988 6.487c1.956 2.897 3 6.302 3 9.786a17.54 17.54 0 01-5.22 12.449A17.916 17.916 0 0120 37.405zm1.1-27.51h-2.2v10.569l10.52 5.264.98-1.979-9.3-4.591V9.894z" fill="#2B2B2B"/></svg>