<svg xmlns="http://www.w3.org/2000/svg" viewBox="0 0 330.17 278.09"><defs><style>.cls-2{fill:none;stroke:#2d2d2d;stroke-width:2.5px}.cls-4{fill:#fff}</style></defs><g id="Слой_2" data-name="Слой 2"><g id="Слой_1-2" data-name="Слой 1"><path d="M61.94 164.17C5.42 197-39.2 231.57 53.13 258.29s126.49 15.09 161.54 0 93.16-75.39 108-143 20.48-125.53-112.75-103.7S61.94 164.17 61.94 164.17z" fill="#f3f0e8"/><path class="cls-2" d="M143.35 164.12c125.88 24.3 143.87 29.65 150.67-6.81s12.11-69 15.07-89c4.37-29.58-10.21-34.57-51.52-36.46"/><path class="cls-2" d="M290.89 204s-45 44.23-61.51 56.87-28 21.06-58.08 12.55-113.72-33.91-136.37-39.97c-18.53-4.95-23.83-24.34-2.81-36.76 12.71-7.51 39.12-23.8 58-35.38 42.64-26.18 44.36.62 31.54-2.54-18.25-4.5-19.52-16.79-18.19-29.94 0 0 51.89 11.62 47.57-35.55-3-41.81-69.67-31.34-68.83 4.83 0 14.83 11.83 25.17 11.83 25.17"/><path class="cls-2" d="M164 29.61s-47.37-9-50.34 18.34c-.4 3.48-.84 7.16-1.3 10.94M130.24 172c29.78 7.45 77.53 17.36 103.6 22 34.2 6.08 18.38 19.49 9.88 27s-16 20-37 16.26S107.88 212 85.88 206.38c-19.26-4.89-20.9-14.82-5.63-22.88m33.67-66.18l-6.79-36.15s20-6.26 22.67 7.22-24.53 14.9-24.53 14.9m.61 7.03l16.08-1.86"/><path d="M189.41 12.83C182.21 55.71 176.85 93.61 174 126a7.62 7.62 0 005.55 8c23.15 6.54 51.08 9.7 81.62 11a7.62 7.62 0 007.82-6.21c6.77-35.78 11.12-74.19 14.88-117.2a7.63 7.63 0 00-6.62-8.22C249 9.7 222 7.16 197.13 6.48a7.61 7.61 0 00-7.72 6.35z" fill="#ffdd40"/><circle class="cls-4" cx="207.39" cy="48.71" r="14.92"/><circle class="cls-4" cx="200.45" cy="89.45" r="14.92"/><path class="cls-2" d="M199.76 43.53c2.12 5.66 4.16 14.57 14.63 5.14l11.05-10m-32.28 43.59c2.12 5.66 3.91 16.9 13.75 6.81 3.94-4 8.39-9.35 8.39-9.35m18.28-34.71l30.2 5.15m-32.51 8.43l30.2 5.15m-34.83 22.68l30.2 5.14M224.33 100l30.2 5.14"/><path class="cls-2" d="M278.63 17.42s-28.16-4.34-40.12-3.15c-8.72 1.46-1.72 8.38 2.61 3.15 3.08-4.49 4.48-13.29 4.48-13.29l-27.32-2.78-2.71 11.36-30.42-3.25s-14.88 72.44-14.88 109.76l93.4 15.39z"/></g></g></svg>