<svg width="206" height="32" fill="none" xmlns="http://www.w3.org/2000/svg"><path d="M173.314 0h.736v31.853h-.736V0zm13.095 19.568h-2.501v-7.356h4.34v.736h-3.457v2.354h1.618c1.472 0 2.428.588 2.428 2.06v.073c-.074 1.398-.956 2.133-2.428 2.133zm-.073-.662c1.103 0 1.545-.515 1.545-1.397v-.074c0-.883-.515-1.398-1.619-1.398h-1.545v2.87h1.619zm3.31-.809c0-1.25 1.324-1.692 2.722-1.692h.809v-.368c0-.883-.294-1.25-1.177-1.25-.735 0-1.177.294-1.25.956h-.883c.147-1.25 1.103-1.692 2.133-1.692s1.986.441 1.986 1.913v3.604h-.882v-.662c-.368.515-.883.81-1.692.81-1.03 0-1.766-.516-1.766-1.619zm3.458-.368v-.662h-.736c-1.103 0-1.839.294-1.839 1.03 0 .588.294.883 1.03.883.809 0 1.545-.442 1.545-1.25zm5.811-.515h-2.648v2.354h-.883v-5.37h.883v2.28h2.648v-2.28h.883v5.37h-.883v-2.354zm3.163-.368v2.722h-.882v-5.37h.882V16.7l2.207-2.5h1.03l-2.28 2.5 2.501 2.87h-1.03l-2.428-2.723z" fill="#000"/><path d="M15.963.074C7.136.074 0 7.21 0 16.037c0 8.828 7.136 15.964 15.963 15.964 8.828 0 15.963-7.136 15.963-15.964C31.926 7.21 24.791.074 15.963.074zm-2.207 22.731l-1.177 3.458C8.166 24.79 5.223 20.598 5.223 15.89c0-4.708 2.943-8.827 7.43-10.372l1.177 3.457c-2.943.957-4.855 3.752-4.855 6.842-.147 3.236 1.839 6.032 4.781 6.988zm5.444 3.531l-1.103-3.53c3.016-.957 5.002-3.753 5.002-6.916 0-3.163-1.986-5.885-4.929-6.841l1.177-3.531a10.911 10.911 0 017.504 10.372c0 4.855-3.09 9.049-7.651 10.446z" fill="#00BEF0"/><path d="M162.132 18.905l1.766 2.134c-1.839 1.912-4.12 2.427-5.959 2.427-1.765 0-3.016-.294-4.119-.809-2.354-1.177-3.531-3.531-3.531-6.4 0-4.34 2.942-7.577 7.283-7.577 4.855 0 7.209 3.605 6.841 8.313h-11.035c.074 1.177.736 2.28 1.692 2.869.81.515 1.766.735 3.017.735 1.397 0 2.795-.441 4.045-1.692zm-8.68-4.487h7.798c-.221-1.692-1.619-3.163-3.826-3.163-2.28 0-3.678 1.618-3.972 3.163zm-74.078 8.607h3.972l-6.253-7.283 6.18-6.841h-3.9l-4.707 5.443h-1.398V8.901h-3.016v14.05h3.016v-5.59h1.398l4.708 5.664zm12.947-11.55c-2.575 0-4.267 1.987-4.267 4.488 0 2.5 1.692 4.487 4.267 4.487s4.193-1.912 4.193-4.487c.074-2.428-1.545-4.488-4.193-4.488zm.515-2.869c3.972 0 6.915 3.09 6.915 7.357 0 4.193-2.87 7.43-6.915 7.43-1.913 0-3.457-.662-4.561-1.84v7.357h-3.09V8.974h3.016v1.692c1.178-1.397 2.722-2.06 4.635-2.06zm40.092.368h-12.579v2.796h4.781v11.255h3.09V11.77h4.781V8.974h-.073zm-64.81 0H55.467v2.796h4.782v11.255h3.09V11.77h4.78V8.974zm-16.33 7.062c0-2.648-1.84-4.56-4.414-4.56-2.501 0-4.414 1.912-4.414 4.56 0 2.649 1.84 4.561 4.414 4.561 2.501 0 4.414-1.912 4.414-4.56zm-11.991 0c0-4.193 3.237-7.356 7.577-7.356 4.267 0 7.577 3.163 7.577 7.356s-3.237 7.43-7.577 7.43c-4.267-.073-7.577-3.237-7.577-7.43zM147.86 8.974v14.05h-3.016v-9.047l-7.356 9.048h-2.428V8.975h3.016v9.048l7.357-9.049h2.427zm-29.646 14.05h-3.016V8.975h3.016v14.05zm-7.797-4.78c0-1.251-.883-2.134-2.06-2.134h-3.09v4.34h3.09c1.177 0 2.06-.956 2.06-2.207zm3.016 0c0 2.795-2.06 4.78-5.003 4.78h-6.179V8.975h3.016v4.561h3.458c2.942 0 4.708 1.913 4.708 4.708z" fill="#000"/></svg>